<svg xmlns="http://www.w3.org/2000/svg" width="481.80000000000007" height="136.39435581750914" viewBox="0 0 369.65517241379314 104.64690559566124" class="looka-1j8o68f"><defs id="SvgjsDefs1017"><linearGradient id="SvgjsLinearGradient1022"><stop id="SvgjsStop1023" stop-color="#7f00ff" offset="0"/><stop id="SvgjsStop1024" stop-color="#e100ff" offset="1"/></linearGradient><linearGradient id="SvgjsLinearGradient1025"><stop id="SvgjsStop1026" stop-color="#7f00ff" offset="0"/><stop id="SvgjsStop1027" stop-color="#e100ff" offset="1"/></linearGradient></defs><g id="SvgjsG1018" featurekey="G09qjj-0" transform="matrix(0.36462134833768667,0,0,0.36462134833768667,-24.721328530031204,-2.187433910433326)" fill="url(#SvgjsLinearGradient1022)"><g xmlns="http://www.w3.org/2000/svg"><defs><line id="a" x1="294" y1="7" x2="294" y2="293"/></defs><clipPath><use xmlns:xlink="http://www.w3.org/1999/xlink" xlink:href="#a" style="" overflow="visible"/></clipPath></g><g xmlns="http://www.w3.org/2000/svg"><path d="M151,293c-45.8,0.2-83.1-36.8-83.1-82.5c0-18.6,6.3-36.6,17.8-51.2l2.8-3.2c0.3-0.3,0.7-0.7,1-1l81.5-90.4   c12.8,11.5,13.9,31.2,2.4,43.9l-61.5,68.2c-8.2,9.3-12.7,21.3-12.7,33.7c0,28.5,23.5,51.8,52.2,51.3c28.2-0.5,50.7-23.9,50.7-52.1   v-21.4c0-17.2,13.9-31.1,31.2-31.1v52.3C233.2,255.2,196.6,292.8,151,293z"/><path d="M215.4,139.6v0.2l-85.1,94.4c-12.8-11.5-13.9-31.2-2.4-43.9l61.5-68.2c8.2-9.3,12.7-21.4,12.7-33.7   c0-28.5-23.5-51.8-52.2-51.3C121.5,37.5,99,61,99,89.2v21.4c0,17.2-13.9,31.1-31.2,31.1V89.4C67.9,43.9,104.5,6.2,150,6   c45.8-0.2,83.1,36.8,83.1,82.5C233.2,107.1,226.9,125.1,215.4,139.6z"/></g></g><g id="SvgjsG1019" featurekey="0yvIkK-0" transform="matrix(2.36685047276439,0,0,2.36685047276439,77.58581425582778,17.449769422045236)" fill="url(#SvgjsLinearGradient1025)"><path d="M8.34 5.48 q3.14 0 4.88 2.22 l-1.08 0.9 q-0.6 -0.9 -1.6 -1.41 t-2.2 -0.51 q-2.64 0 -4.3 1.74 t-1.7 4.5 q0 2.74 1.67 4.47 t4.33 1.77 q1.14 0 2.32 -0.57 t1.86 -1.63 l1.08 0.82 q-1.88 2.58 -5.26 2.58 q-3.28 -0.02 -5.27 -2.12 t-2.05 -5.32 q0 -3.26 2.05 -5.33 t5.27 -2.11 z M15.68 4.880000000000001 l1.2 0 l0 7.5 l0.04 0 q0.4 -0.86 1.27 -1.36 t1.89 -0.5 q3.52 0 3.52 3.9 l0 5.58 l-1.2 0 l0 -5.46 q0 -2.94 -2.32 -2.94 q-1.5 0 -2.35 1.03 t-0.85 2.71 l0 4.66 l-1.2 0 l0 -15.12 z M30.220000000000002 20.24 q-1.76 0 -2.64 -0.99 t-0.88 -3.03 l0 -5.46 l1.2 0 l0 5.4 q0 1.5 0.57 2.25 t1.75 0.75 q1.46 0 2.32 -1 t0.88 -2.82 l0 -4.58 l1.2 0 l0 6.74 q0.04 1.02 0.1 2.5 l-1.2 0 q-0.02 -1.14 -0.08 -1.62 l-0.06 0 q-0.4 0.86 -1.27 1.36 t-1.89 0.5 z M42.040000000000006 10.52 q0.34 0 0.7 0.1 l-0.14 1.18 q-0.22 -0.08 -0.48 -0.08 q-1.46 0 -2.23 0.9 t-0.77 2.34 l0 5.04 l-1.2 0 l0 -6.74 q0 -0.2 -0.1 -2.5 l1.2 0 q0.04 1.38 0.08 1.62 q1.04 -1.86 2.94 -1.86 z M48.92 10.52 q2 0 3.44 1.6 l-0.96 0.72 q-1.16 -1.24 -2.5 -1.24 q-1.56 0 -2.59 1.06 t-1.05 2.72 q0 1.66 1.04 2.71 t2.6 1.07 q1.48 0 2.5 -1.28 l0.92 0.76 q-1.34 1.58 -3.4 1.6 q-2.1 0 -3.46 -1.36 t-1.4 -3.5 q0 -2.06 1.35 -3.44 t3.51 -1.42 z M54.20000000000001 4.880000000000001 l1.2 0 l0 7.5 l0.04 0 q0.4 -0.86 1.27 -1.36 t1.89 -0.5 q3.52 0 3.52 3.9 l0 5.58 l-1.2 0 l0 -5.46 q0 -2.94 -2.32 -2.94 q-1.5 0 -2.35 1.03 t-0.85 2.71 l0 4.66 l-1.2 0 l0 -15.12 z M67.84000000000002 10.52 q2.34 0 3.24 1.74 l-1.08 0.64 q-0.68 -1.3 -2.16 -1.3 q-0.8 0 -1.39 0.43 t-0.59 1.05 t0.5 0.99 t1.74 0.59 q1.84 0.32 2.54 0.95 t0.7 1.77 q0 1.3 -0.93 2.08 t-2.43 0.78 q-2.64 -0.02 -3.7 -1.88 l1.06 -0.72 q0.34 0.7 1.11 1.11 t1.57 0.41 q0.92 0 1.52 -0.51 t0.6 -1.19 q0 -0.62 -0.49 -1.02 t-2.13 -0.72 q-1.42 -0.28 -2.14 -0.86 t-0.72 -1.68 q0 -1.18 0.9 -1.92 t2.28 -0.74 z M74.66000000000001 15.379999999999999 q0 1.58 1.12 2.66 t2.74 1.12 q1.62 0 2.63 -1.07 t1.03 -2.71 q0 -1.6 -1 -2.68 t-2.68 -1.1 q-1.62 0 -2.72 1.1 t-1.12 2.68 z M78.52000000000001 10.52 q2.12 0 3.48 1.37 t1.38 3.49 q0 2.12 -1.36 3.48 t-3.5 1.38 q-1.18 0 -2.19 -0.5 t-1.51 -1.36 l-0.04 0 l0 6.18 l-1.2 0 l0 -13.8 l1.2 0 l0 1.62 l0.04 0 q0.48 -0.84 1.5 -1.35 t2.2 -0.51 z M86.06 4.880000000000001 l1.2 0 l0 7.5 l0.04 0 q0.4 -0.86 1.27 -1.36 t1.89 -0.5 q3.52 0 3.52 3.9 l0 5.58 l-1.2 0 l0 -5.46 q0 -2.94 -2.32 -2.94 q-1.5 0 -2.35 1.03 t-0.85 2.71 l0 4.66 l-1.2 0 l0 -15.12 z M104.42000000000002 14.6 q0 -1.26 -0.94 -2.13 t-2.28 -0.87 q-1.3 0 -2.24 0.87 t-1.1 2.13 l6.56 0 z M101.28000000000002 10.52 q1.92 0 3.12 1.24 t1.22 3.2 l0 0.72 l-7.76 0 q0.08 1.56 1.03 2.51 t2.47 0.97 q0.94 0 1.79 -0.45 t1.31 -1.19 l0.88 0.74 q-1.3 1.98 -4 1.98 q-2.12 -0.02 -3.39 -1.38 t-1.29 -3.5 q0 -2.08 1.31 -3.45 t3.31 -1.39 z M112.42000000000002 10.52 q0.34 0 0.7 0.1 l-0.14 1.18 q-0.22 -0.08 -0.48 -0.08 q-1.46 0 -2.23 0.9 t-0.77 2.34 l0 5.04 l-1.2 0 l0 -6.74 q0 -0.2 -0.1 -2.5 l1.2 0 q0.04 1.38 0.08 1.62 q1.04 -1.86 2.94 -1.86 z M122.20000000000002 14.6 q0 -1.26 -0.94 -2.13 t-2.28 -0.87 q-1.3 0 -2.24 0.87 t-1.1 2.13 l6.56 0 z M119.06000000000002 10.52 q1.92 0 3.12 1.24 t1.22 3.2 l0 0.72 l-7.76 0 q0.08 1.56 1.03 2.51 t2.47 0.97 q0.94 0 1.79 -0.45 t1.31 -1.19 l0.88 0.74 q-1.3 1.98 -4 1.98 q-2.12 -0.02 -3.39 -1.38 t-1.29 -3.5 q0 -2.08 1.31 -3.45 t3.31 -1.39 z"/></g></svg>